<mxfile host="65bd71144e">
    <diagram id="HgfWX8y3OkLMgKvYEy1b" name="Page-1">
        <mxGraphModel dx="493" dy="1951" grid="1" gridSize="10" guides="1" tooltips="1" connect="1" arrows="1" fold="1" page="1" pageScale="1" pageWidth="827" pageHeight="1169" math="0" shadow="0">
            <root>
                <mxCell id="0"/>
                <mxCell id="1" parent="0"/>
                <mxCell id="4IUI6o5qjSnM7iL3YU8Y-1" value="" style="whiteSpace=wrap;html=1;aspect=fixed;fillColor=#dae8fc;strokeColor=#6c8ebf;" parent="1" vertex="1">
                    <mxGeometry x="80" y="-100" width="550" height="550" as="geometry"/>
                </mxCell>
                <mxCell id="4IUI6o5qjSnM7iL3YU8Y-2" value="Instrument" style="rounded=1;whiteSpace=wrap;html=1;" parent="1" vertex="1">
                    <mxGeometry x="110" y="-60" width="240" height="60" as="geometry"/>
                </mxCell>
                <mxCell id="4IUI6o5qjSnM7iL3YU8Y-3" value="CURRENCY" style="rounded=1;whiteSpace=wrap;html=1;" parent="1" vertex="1">
                    <mxGeometry x="380" y="-60" width="210" height="60" as="geometry"/>
                </mxCell>
                <mxCell id="4IUI6o5qjSnM7iL3YU8Y-4" value="Stop loss (pips)" style="rounded=1;whiteSpace=wrap;html=1;" parent="1" vertex="1">
                    <mxGeometry x="110" y="20" width="240" height="60" as="geometry"/>
                </mxCell>
                <mxCell id="4IUI6o5qjSnM7iL3YU8Y-5" value="Account Balance" style="rounded=1;whiteSpace=wrap;html=1;" parent="1" vertex="1">
                    <mxGeometry x="365" y="20" width="240" height="60" as="geometry"/>
                </mxCell>
                <mxCell id="4IUI6o5qjSnM7iL3YU8Y-6" value="Open Price&lt;span style=&quot;color: rgba(0, 0, 0, 0); font-family: monospace; font-size: 0px; text-align: start;&quot;&gt;%3CmxGraphModel%3E%3Croot%3E%3CmxCell%20id%3D%220%22%2F%3E%3CmxCell%20id%3D%221%22%20parent%3D%220%22%2F%3E%3CmxCell%20id%3D%222%22%20value%3D%22Pairs%22%20style%3D%22rounded%3D1%3BwhiteSpace%3Dwrap%3Bhtml%3D1%3B%22%20vertex%3D%221%22%20parent%3D%221%22%3E%3CmxGeometry%20x%3D%22110%22%20y%3D%2220%22%20width%3D%22240%22%20height%3D%2260%22%20as%3D%22geometry%22%2F%3E%3C%2FmxCell%3E%3C%2Froot%3E%3C%2FmxGraphModel%3E&lt;/span&gt;&lt;span style=&quot;color: rgba(0, 0, 0, 0); font-family: monospace; font-size: 0px; text-align: start;&quot;&gt;%3CmxGraphModel%3E%3Croot%3E%3CmxCell%20id%3D%220%22%2F%3E%3CmxCell%20id%3D%221%22%20parent%3D%220%22%2F%3E%3CmxCell%20id%3D%222%22%20value%3D%22Pairs%22%20style%3D%22rounded%3D1%3BwhiteSpace%3Dwrap%3Bhtml%3D1%3B%22%20vertex%3D%221%22%20parent%3D%221%22%3E%3CmxGeometry%20x%3D%22110%22%20y%3D%2220%22%20width%3D%22240%22%20height%3D%2260%22%20as%3D%22geometry%22%2F%3E%3C%2FmxCell%3E%3C%2Froot%3E%3C%2FmxGraphModel%3E&lt;/span&gt;" style="rounded=1;whiteSpace=wrap;html=1;" parent="1" vertex="1">
                    <mxGeometry x="110" y="100" width="240" height="60" as="geometry"/>
                </mxCell>
                <mxCell id="4IUI6o5qjSnM7iL3YU8Y-7" value="Stop loss price" style="rounded=1;whiteSpace=wrap;html=1;" parent="1" vertex="1">
                    <mxGeometry x="365" y="100" width="240" height="60" as="geometry"/>
                </mxCell>
                <mxCell id="4IUI6o5qjSnM7iL3YU8Y-8" value="Risk (% or USD)" style="rounded=1;whiteSpace=wrap;html=1;" parent="1" vertex="1">
                    <mxGeometry x="110" y="170" width="240" height="60" as="geometry"/>
                </mxCell>
                <mxCell id="4IUI6o5qjSnM7iL3YU8Y-9" value="Contract Size (units per lot)" style="rounded=1;whiteSpace=wrap;html=1;" parent="1" vertex="1">
                    <mxGeometry x="365" y="170" width="240" height="60" as="geometry"/>
                </mxCell>
                <mxCell id="4IUI6o5qjSnM7iL3YU8Y-11" value="Precise Lot size" style="text;html=1;strokeColor=#001DBC;fillColor=#0050ef;align=center;verticalAlign=middle;whiteSpace=wrap;rounded=0;fontColor=#ffffff;" parent="1" vertex="1">
                    <mxGeometry x="130" y="330" width="110" height="30" as="geometry"/>
                </mxCell>
                <mxCell id="4IUI6o5qjSnM7iL3YU8Y-12" value="approx+ Lot size" style="text;html=1;strokeColor=#3700CC;fillColor=#6a00ff;align=center;verticalAlign=middle;whiteSpace=wrap;rounded=0;fontColor=#ffffff;" parent="1" vertex="1">
                    <mxGeometry x="130" y="390" width="110" height="30" as="geometry"/>
                </mxCell>
                <mxCell id="4IUI6o5qjSnM7iL3YU8Y-13" value="approx- Lot size" style="text;html=1;strokeColor=#3700CC;fillColor=#6a00ff;align=center;verticalAlign=middle;whiteSpace=wrap;rounded=0;fontColor=#ffffff;" parent="1" vertex="1">
                    <mxGeometry x="270" y="390" width="110" height="30" as="geometry"/>
                </mxCell>
                <mxCell id="4IUI6o5qjSnM7iL3YU8Y-14" value="Risk amount $" style="text;html=1;strokeColor=#2D7600;fillColor=#60a917;align=center;verticalAlign=middle;whiteSpace=wrap;rounded=0;fontColor=#ffffff;" parent="1" vertex="1">
                    <mxGeometry x="495" y="330" width="110" height="30" as="geometry"/>
                </mxCell>
                <mxCell id="4IUI6o5qjSnM7iL3YU8Y-15" value="Calculate" style="rounded=0;whiteSpace=wrap;html=1;" parent="1" vertex="1">
                    <mxGeometry x="295" y="250" width="120" height="60" as="geometry"/>
                </mxCell>
                <mxCell id="4IUI6o5qjSnM7iL3YU8Y-16" value="" style="endArrow=none;html=1;rounded=0;exitX=0;exitY=0.75;exitDx=0;exitDy=0;entryX=1;entryY=0.75;entryDx=0;entryDy=0;" parent="1" source="4IUI6o5qjSnM7iL3YU8Y-1" target="4IUI6o5qjSnM7iL3YU8Y-1" edge="1">
                    <mxGeometry width="50" height="50" relative="1" as="geometry">
                        <mxPoint x="390" y="300" as="sourcePoint"/>
                        <mxPoint x="440" y="250" as="targetPoint"/>
                    </mxGeometry>
                </mxCell>
            </root>
        </mxGraphModel>
    </diagram>
</mxfile>